<mxfile host="app.diagrams.net" agent="Mozilla/5.0 (Macintosh; Intel Mac OS X 10.15; rv:141.0) Gecko/20100101 Firefox/141.0" version="28.0.9">
  <diagram name="Page-1" id="rJd82SwJ6pK51FtcIQn_">
    <mxGraphModel dx="1376" dy="799" grid="1" gridSize="10" guides="1" tooltips="1" connect="1" arrows="1" fold="1" page="1" pageScale="1" pageWidth="850" pageHeight="1100" math="0" shadow="0">
      <root>
        <mxCell id="0" />
        <mxCell id="1" parent="0" />
        <mxCell id="Zo9WxlXLLLf2FxghPbUZ-1" value="&lt;b&gt;&lt;font style=&quot;font-size: 22px;&quot;&gt;MVP&lt;/font&gt;&lt;/b&gt;" style="rounded=0;whiteSpace=wrap;html=1;fillColor=#d5e8d4;strokeColor=#82b366;verticalAlign=top;" vertex="1" parent="1">
          <mxGeometry x="45" y="40" width="760" height="240" as="geometry" />
        </mxCell>
        <mxCell id="Zo9WxlXLLLf2FxghPbUZ-2" value="Stretch goals" style="rounded=0;whiteSpace=wrap;html=1;fillColor=#dae8fc;strokeColor=#6c8ebf;verticalAlign=bottom;fontStyle=1;fontSize=22;" vertex="1" parent="1">
          <mxGeometry x="45" y="280" width="760" height="240" as="geometry" />
        </mxCell>
        <mxCell id="Zo9WxlXLLLf2FxghPbUZ-5" value="" style="edgeStyle=orthogonalEdgeStyle;rounded=0;orthogonalLoop=1;jettySize=auto;html=1;" edge="1" parent="1" source="Zo9WxlXLLLf2FxghPbUZ-3" target="Zo9WxlXLLLf2FxghPbUZ-4">
          <mxGeometry relative="1" as="geometry" />
        </mxCell>
        <mxCell id="Zo9WxlXLLLf2FxghPbUZ-3" value="User types in prompt w optional genre selections" style="rounded=1;whiteSpace=wrap;html=1;" vertex="1" parent="1">
          <mxGeometry x="60" y="115" width="120" height="60" as="geometry" />
        </mxCell>
        <mxCell id="Zo9WxlXLLLf2FxghPbUZ-7" value="" style="edgeStyle=orthogonalEdgeStyle;rounded=0;orthogonalLoop=1;jettySize=auto;html=1;" edge="1" parent="1" source="Zo9WxlXLLLf2FxghPbUZ-4" target="Zo9WxlXLLLf2FxghPbUZ-6">
          <mxGeometry relative="1" as="geometry" />
        </mxCell>
        <mxCell id="Zo9WxlXLLLf2FxghPbUZ-4" value="OpenAI analyses prompt, returns structured array of movie titles w release year" style="whiteSpace=wrap;html=1;rounded=1;" vertex="1" parent="1">
          <mxGeometry x="210" y="100" width="120" height="90" as="geometry" />
        </mxCell>
        <mxCell id="Zo9WxlXLLLf2FxghPbUZ-9" value="" style="edgeStyle=orthogonalEdgeStyle;rounded=0;orthogonalLoop=1;jettySize=auto;html=1;" edge="1" parent="1" source="Zo9WxlXLLLf2FxghPbUZ-6" target="Zo9WxlXLLLf2FxghPbUZ-8">
          <mxGeometry relative="1" as="geometry" />
        </mxCell>
        <mxCell id="Zo9WxlXLLLf2FxghPbUZ-6" value="OMDB API call for each movie &amp;amp; movie poster to get full details" style="whiteSpace=wrap;html=1;rounded=1;" vertex="1" parent="1">
          <mxGeometry x="365" y="115" width="120" height="60" as="geometry" />
        </mxCell>
        <mxCell id="Zo9WxlXLLLf2FxghPbUZ-11" value="" style="edgeStyle=orthogonalEdgeStyle;rounded=0;orthogonalLoop=1;jettySize=auto;html=1;" edge="1" parent="1" source="Zo9WxlXLLLf2FxghPbUZ-8" target="Zo9WxlXLLLf2FxghPbUZ-10">
          <mxGeometry relative="1" as="geometry" />
        </mxCell>
        <mxCell id="Zo9WxlXLLLf2FxghPbUZ-8" value="Save details in cache in case movie comes up in future search" style="whiteSpace=wrap;html=1;rounded=1;" vertex="1" parent="1">
          <mxGeometry x="510" y="115" width="120" height="60" as="geometry" />
        </mxCell>
        <mxCell id="Zo9WxlXLLLf2FxghPbUZ-10" value="Show list to user" style="whiteSpace=wrap;html=1;rounded=1;" vertex="1" parent="1">
          <mxGeometry x="660" y="115" width="120" height="60" as="geometry" />
        </mxCell>
        <mxCell id="Zo9WxlXLLLf2FxghPbUZ-16" value="" style="edgeStyle=orthogonalEdgeStyle;rounded=0;orthogonalLoop=1;jettySize=auto;html=1;" edge="1" parent="1" source="Zo9WxlXLLLf2FxghPbUZ-14" target="Zo9WxlXLLLf2FxghPbUZ-15">
          <mxGeometry relative="1" as="geometry" />
        </mxCell>
        <mxCell id="Zo9WxlXLLLf2FxghPbUZ-14" value="User can specify number of watchers (up to 8?)" style="rounded=1;whiteSpace=wrap;html=1;" vertex="1" parent="1">
          <mxGeometry x="60" y="350" width="120" height="50" as="geometry" />
        </mxCell>
        <mxCell id="Zo9WxlXLLLf2FxghPbUZ-18" value="" style="edgeStyle=orthogonalEdgeStyle;rounded=0;orthogonalLoop=1;jettySize=auto;html=1;" edge="1" parent="1" source="Zo9WxlXLLLf2FxghPbUZ-15" target="Zo9WxlXLLLf2FxghPbUZ-17">
          <mxGeometry relative="1" as="geometry" />
        </mxCell>
        <mxCell id="Zo9WxlXLLLf2FxghPbUZ-15" value="List gets shown to each person who&amp;nbsp;can look through selections and check which ones they&#39;d like to watch&amp;nbsp;" style="whiteSpace=wrap;html=1;rounded=1;" vertex="1" parent="1">
          <mxGeometry x="210" y="330" width="130" height="90" as="geometry" />
        </mxCell>
        <mxCell id="Zo9WxlXLLLf2FxghPbUZ-17" value="App collates common selections" style="whiteSpace=wrap;html=1;rounded=1;" vertex="1" parent="1">
          <mxGeometry x="365" y="345" width="120" height="60" as="geometry" />
        </mxCell>
      </root>
    </mxGraphModel>
  </diagram>
</mxfile>
